<?xml version="1.0" encoding="UTF-8" standalone="no"?>
<svg
   xmlns:dc="http://purl.org/dc/elements/1.1/"
   xmlns:cc="http://creativecommons.org/ns#"
   xmlns:rdf="http://www.w3.org/1999/02/22-rdf-syntax-ns#"
   xmlns:svg="http://www.w3.org/2000/svg"
   xmlns="http://www.w3.org/2000/svg"
   xmlns:sodipodi="http://sodipodi.sourceforge.net/DTD/sodipodi-0.dtd"
   xmlns:inkscape="http://www.inkscape.org/namespaces/inkscape"
   width="1108.0282"
   height="662.90161"
   id="svg4736"
   version="1.1"
   inkscape:version="1.0.1 (3bc2e813f5, 2020-09-07)"
   sodipodi:docname="Bulldozer items.svg"
   inkscape:export-filename="Items.png"
   inkscape:export-xdpi="33.742565"
   inkscape:export-ydpi="33.742565">
  <defs
     id="defs4738">
    <marker
       inkscape:stockid="DotM"
       orient="auto"
       refY="0"
       refX="0"
       id="DotM"
       style="overflow:visible">
      <path
         id="path4082"
         d="m -2.5,-1 c 0,2.76 -2.24,5 -5,5 -2.76,0 -5,-2.24 -5,-5 0,-2.76 2.24,-5 5,-5 2.76,0 5,2.24 5,5 z"
         style="fill-rule:evenodd;stroke:#000000;stroke-width:1pt"
         transform="matrix(0.4,0,0,0.4,2.96,0.4)"
         inkscape:connector-curvature="0" />
    </marker>
    <marker
       inkscape:stockid="DotS"
       orient="auto"
       refY="0"
       refX="0"
       id="DotS"
       style="overflow:visible">
      <path
         id="path4085"
         d="m -2.5,-1 c 0,2.76 -2.24,5 -5,5 -2.76,0 -5,-2.24 -5,-5 0,-2.76 2.24,-5 5,-5 2.76,0 5,2.24 5,5 z"
         style="fill-rule:evenodd;stroke:#000000;stroke-width:1pt"
         transform="matrix(0.2,0,0,0.2,1.48,0.2)"
         inkscape:connector-curvature="0" />
    </marker>
    <marker
       inkscape:stockid="Arrow1Mend"
       orient="auto"
       refY="0"
       refX="0"
       id="Arrow1Mend"
       style="overflow:visible">
      <path
         id="path3877"
         d="M 0,0 5,-5 -12.5,0 5,5 0,0 z"
         style="fill-rule:evenodd;stroke:#000000;stroke-width:1pt"
         transform="matrix(-0.4,0,0,-0.4,-4,0)"
         inkscape:connector-curvature="0" />
    </marker>
    <marker
       inkscape:stockid="Arrow1Mstart"
       orient="auto"
       refY="0"
       refX="0"
       id="Arrow1Mstart"
       style="overflow:visible">
      <path
         id="path3874"
         d="M 0,0 5,-5 -12.5,0 5,5 0,0 z"
         style="fill-rule:evenodd;stroke:#000000;stroke-width:1pt"
         transform="matrix(0.4,0,0,0.4,4,0)"
         inkscape:connector-curvature="0" />
    </marker>
    <marker
       inkscape:stockid="Arrow1Mend"
       orient="auto"
       refY="0"
       refX="0"
       id="Arrow1Mend-1"
       style="overflow:visible">
      <path
         id="path3877-7"
         d="M 0,0 5,-5 -12.5,0 5,5 0,0 z"
         style="fill-rule:evenodd;stroke:#000000;stroke-width:1pt"
         transform="matrix(-0.4,0,0,-0.4,-4,0)"
         inkscape:connector-curvature="0" />
    </marker>
    <filter
       inkscape:collect="always"
       id="filter5091"
       color-interpolation-filters="sRGB">
      <feGaussianBlur
         inkscape:collect="always"
         stdDeviation="1.7482611"
         id="feGaussianBlur5093" />
    </filter>
  </defs>
  <sodipodi:namedview
     id="base"
     pagecolor="#ffffff"
     bordercolor="#666666"
     borderopacity="1.0"
     inkscape:pageopacity="0.0"
     inkscape:pageshadow="2"
     inkscape:zoom="1.1781538"
     inkscape:cx="568.08935"
     inkscape:cy="331.45079"
     inkscape:document-units="px"
     inkscape:current-layer="layer9"
     showgrid="false"
     inkscape:window-width="1366"
     inkscape:window-height="715"
     inkscape:window-x="-8"
     inkscape:window-y="-8"
     inkscape:window-maximized="1"
     fit-margin-top="0"
     fit-margin-left="0"
     fit-margin-right="0"
     fit-margin-bottom="0"
     showborder="false"
     inkscape:document-rotation="0" />
  <metadata
     id="metadata4741">
    <rdf:RDF>
      <cc:Work
         rdf:about="">
        <dc:format>image/svg+xml</dc:format>
        <dc:type
           rdf:resource="http://purl.org/dc/dcmitype/StillImage" />
        <dc:title />
      </cc:Work>
    </rdf:RDF>
  </metadata>
  <g
     inkscape:groupmode="layer"
     id="layer4"
     inkscape:label="Frame"
     style="display:inline"
     transform="translate(1229.9958,-8.6675947)">
    <rect
       style="color:#000000;display:inline;overflow:visible;visibility:visible;fill:#bfbfbf;fill-opacity:0.510638;fill-rule:nonzero;stroke:none;stroke-width:1;marker:none;enable-background:accumulate"
       id="rect3830"
       width="290.84344"
       height="227.87953"
       x="-21.64835"
       y="608.83765"
       transform="matrix(1,0,-0.59648548,0.80262387,0,0)" />
    <path
       sodipodi:nodetypes="ccccccccccccccccc"
       inkscape:connector-curvature="0"
       id="path3030"
       d="m -252.7337,502.49997 -61.83739,0.71332 -21.58031,27.22514 -37.39646,13.63238 -25.79913,34.71501 -48.72777,44.74871 0.72595,14.99959 h 163.5793 l 22.09689,-11.23478 51.98645,-61.56848 -70.01012,-18.15136 z m -18.36274,9.51096 -29.14819,49.13998 -48.86203,-1.2285 36.99773,-47.27741 z"
       style="fill:#f3961e;fill-opacity:1;stroke:#000000;stroke-width:5;stroke-linecap:butt;stroke-linejoin:miter;stroke-miterlimit:4;stroke-dasharray:none;stroke-opacity:1" />
  </g>
  <g
     inkscape:groupmode="layer"
     id="layer5"
     inkscape:label="Bucket"
     style="display:inline"
     transform="translate(1229.9958,-8.6675947)">
    <rect
       transform="matrix(1,0,-0.59648548,0.80262387,0,0)"
       y="409.49146"
       x="-140.55545"
       height="227.87953"
       width="290.84344"
       id="rect3833"
       style="color:#000000;display:inline;overflow:visible;visibility:visible;fill:#bfbfbf;fill-opacity:0.510638;fill-rule:nonzero;stroke:none;stroke-width:1;marker:none;enable-background:accumulate" />
    <path
       sodipodi:nodetypes="ccccccccc"
       inkscape:connector-curvature="0"
       id="path3032"
       d="m -201.11703,414.06614 -19.29177,25.95878 h -134.87973 c -9.95133,0 -20.56577,14.51517 -10.78723,14.51517 h 134.87973 l -24.93296,33.54949 h 22.11532 c 6.55389,-21.26237 22.29809,-46.21088 45.18293,-74.02344 z"
       style="color:#000000;display:inline;overflow:visible;visibility:visible;fill:#666666;fill-opacity:1;fill-rule:nonzero;stroke:#000000;stroke-width:5;stroke-linecap:butt;stroke-linejoin:miter;stroke-miterlimit:4;stroke-dasharray:none;stroke-dashoffset:0;stroke-opacity:1;marker:none;enable-background:accumulate" />
    <path
       style="fill:none;stroke:#000000;stroke-width:1;stroke-linecap:round;stroke-linejoin:miter;stroke-miterlimit:4;stroke-dasharray:8, 8;stroke-dashoffset:0;stroke-opacity:1"
       d="M -443.09975,305.29096 V 627.2073"
       id="path3839"
       inkscape:connector-curvature="0" />
    <path
       inkscape:connector-curvature="0"
       id="path3841"
       d="M -271.09975,305.29096 V 627.2073"
       style="fill:none;stroke:#000000;stroke-width:1;stroke-linecap:round;stroke-linejoin:miter;stroke-miterlimit:4;stroke-dasharray:8, 8;stroke-dashoffset:0;stroke-opacity:1" />
    <path
       style="fill:none;stroke:#000000;stroke-width:1.21838;stroke-linecap:round;stroke-linejoin:miter;stroke-miterlimit:4;stroke-dasharray:9.74704, 9.74704;stroke-dashoffset:0;stroke-opacity:1"
       d="M -379.09975,121.09623 V 598.96507"
       id="path3843"
       inkscape:connector-curvature="0" />
    <path
       inkscape:connector-curvature="0"
       id="path3845"
       d="M -359.09975,446.29694 V 611.45078"
       style="fill:none;stroke:#000000;stroke-width:1;stroke-linecap:round;stroke-linejoin:miter;stroke-miterlimit:4;stroke-dasharray:8, 8;stroke-dashoffset:0;stroke-opacity:1" />
  </g>
  <g
     inkscape:groupmode="layer"
     id="layer9"
     inkscape:label="Caterpillar"
     style="display:inline"
     transform="translate(1229.9958,-8.6675947)">
    <rect
       style="color:#000000;display:inline;overflow:visible;visibility:visible;fill:#bfbfbf;fill-opacity:0.510638;fill-rule:nonzero;stroke:none;stroke-width:1;marker:none;enable-background:accumulate"
       id="rect3836"
       width="290.84344"
       height="227.87953"
       x="-259.46255"
       y="210.14526"
       transform="matrix(1,0,-0.59648548,0.80262387,0,0)" />
    <ellipse
       transform="matrix(1,0,-0.59648548,0.80262387,0,0)"
       id="path3034"
       style="color:#000000;display:inline;overflow:visible;visibility:visible;fill:#000000;fill-opacity:1;fill-rule:nonzero;stroke:none;stroke-width:5.66202;marker:none;enable-background:accumulate"
       cx="-213.48744"
       cy="382.51233"
       rx="18.050131"
       ry="22.488464" />
    <ellipse
       transform="matrix(1,0,-0.59648548,0.80262387,0,0)"
       id="path3038"
       style="color:#000000;display:inline;overflow:visible;visibility:visible;fill:#000000;fill-opacity:1;fill-rule:nonzero;stroke:none;stroke-width:4.46863;marker:none;enable-background:accumulate"
       cx="-41.840897"
       cy="387.36282"
       rx="14.245672"
       ry="17.748529" />
    <path
       sodipodi:nodetypes="sssssss"
       inkscape:connector-curvature="0"
       id="path3040"
       d="m -379.09021,258.11956 c 16.06958,-7.68503 25.50966,-4.51038 29.97003,0 21.80387,22.04825 61.91569,25.10873 95.75793,33.37506 17.49761,4.27399 -9.81196,39.60387 -34.80813,39.50517 L -460.673,330.31867 c -21.53755,-0.085 -8.63269,-29.0549 16.06754,-40.86742 z"
       style="display:inline;fill:none;stroke:#1a1a1a;stroke-width:10;stroke-linecap:butt;stroke-linejoin:miter;stroke-miterlimit:4;stroke-dasharray:none;stroke-opacity:1" />
    <text
       xml:space="preserve"
       style="font-style:normal;font-variant:normal;font-weight:normal;font-stretch:normal;font-size:53.33333333px;line-height:0%;font-family:Calibri;-inkscape-font-specification:Calibri;letter-spacing:0px;word-spacing:0px;fill:#000000;fill-opacity:1;stroke:none;"
       x="-705.17029"
       y="265.06165"
       id="text3847"><tspan
         sodipodi:role="line"
         id="tspan3849"
         x="-705.17029"
         y="265.06165"
         style="line-height:1.25;font-size:53.33333333px;">caterpillar</tspan></text>
    <text
       id="text3851"
       y="425.06165"
       x="-705.17029"
       style="font-style:normal;font-variant:normal;font-weight:normal;font-stretch:normal;font-size:53.33333333px;line-height:0%;font-family:Calibri;-inkscape-font-specification:Calibri;letter-spacing:0px;word-spacing:0px;fill:#000000;fill-opacity:1;stroke:none;"
       xml:space="preserve"><tspan
         y="425.06165"
         x="-705.17029"
         id="tspan3853"
         sodipodi:role="line"
         style="line-height:1.25;font-size:53.33333333px;">bucket</tspan></text>
    <text
       xml:space="preserve"
       style="font-style:normal;font-variant:normal;font-weight:normal;font-stretch:normal;font-size:53.33333333px;line-height:0%;font-family:Calibri;-inkscape-font-specification:Calibri;letter-spacing:0px;word-spacing:0px;fill:#000000;fill-opacity:1;stroke:none;"
       x="-705.17029"
       y="585.06165"
       id="text3855"><tspan
         sodipodi:role="line"
         id="tspan3857"
         x="-705.17029"
         y="585.06165"
         style="line-height:1.25;font-size:53.33333333px;">frame</tspan></text>
    <path
       style="fill:#f3961e;fill-opacity:1;stroke:#000000;stroke-width:8.69416237;stroke-linecap:butt;stroke-linejoin:miter;stroke-miterlimit:4;stroke-opacity:1;stroke-dasharray:none;display:inline"
       d="m -1011.6285,252.14935 -106.6031,1.24035 -2.3429,47.33996 -47.4098,23.70442 0,60.36359 -26.903,77.81052 20.6454,26.08178 284.43706,0 23.90468,-19.53541 10.83404,-107.05728 -145.19188,-31.56217 z m -19.6392,16.53797 12.8172,85.4462 -86.5505,-2.13616 3.2388,-82.2075 z"
       id="path3822"
       inkscape:connector-curvature="0"
       sodipodi:nodetypes="ccccccccccccccccc" />
    <path
       transform="translate(3.4319049e-5,4.4072267e-6)"
       sodipodi:nodetypes="cccccccc"
       inkscape:connector-curvature="0"
       id="path5215"
       d="m -899.33398,306.58444 -102.63072,81.83633 1.0138,-8.25278 -15.848,22.14479 24.86437,-10.48535 -7.94127,-1.09555 102.06808,-81.53557 z"
       style="font-size:medium;font-style:normal;font-variant:normal;font-weight:normal;font-stretch:normal;text-indent:0;text-align:start;text-decoration:none;line-height:normal;letter-spacing:normal;word-spacing:normal;text-transform:none;direction:ltr;block-progression:tb;writing-mode:lr-tb;text-anchor:start;baseline-shift:baseline;color:#000000;fill:#ffffff;fill-opacity:1;stroke:#ffffff;stroke-width:3;stroke-miterlimit:100;stroke-dasharray:none;marker:none;visibility:visible;display:inline;overflow:visible;filter:url(#filter5091);enable-background:accumulate;font-family:Sans;-inkscape-font-specification:Sans" />
    <path
       style="color:#000000;fill:#666666;fill-opacity:1;fill-rule:nonzero;stroke:#000000;stroke-width:8.69416237;stroke-linecap:butt;stroke-linejoin:miter;stroke-miterlimit:4;stroke-opacity:1;stroke-dasharray:none;stroke-dashoffset:0;marker:none;visibility:visible;display:inline;overflow:visible;enable-background:accumulate"
       d="m -829.39458,376.59094 0,45.13797 -234.53332,0 c -17.3037,0 -17.0032,25.23945 0,25.23945 l 234.53332,0 0,58.33695 38.45484,0 c -16.08014,-36.9717 -20.94323,-80.35298 -17.09104,-128.71437 z"
       id="path3829"
       inkscape:connector-curvature="0"
       sodipodi:nodetypes="ccccccccc" />
    <path
       transform="translate(3.4319049e-5,4.4072267e-6)"
       sodipodi:nodetypes="ccc"
       style="fill:none;stroke:#000000;stroke-width:3;stroke-linecap:butt;stroke-linejoin:miter;stroke-miterlimit:4;stroke-opacity:1;stroke-dasharray:none;marker-end:url(#Arrow1Mend);display:inline"
       d="m -711.62481,253.23716 -118.64639,0 -182.0511,145.52791"
       id="path4840"
       inkscape:connector-curvature="0" />
    <path
       sodipodi:type="arc"
       style="color:#000000;fill:#000000;fill-opacity:1;fill-rule:nonzero;stroke:none;stroke-width:4;marker:none;visibility:visible;display:inline;overflow:visible;enable-background:accumulate"
       id="path3814"
       sodipodi:cx="39.208984"
       sodipodi:cy="427.85645"
       sodipodi:rx="14.233398"
       sodipodi:ry="14.233398"
       d="m 53.442383,427.85645 c 0,7.86088 -6.37251,14.23339 -14.233399,14.23339 -7.860889,0 -14.233398,-6.37251 -14.233398,-14.23339 0,-7.86089 6.372509,-14.2334 14.233398,-14.2334 7.860889,0 14.233399,6.37251 14.233399,14.2334 z"
       transform="matrix(2.2051063,0,0,2.2050632,-1265.6808,-474.79289)" />
    <path
       sodipodi:type="arc"
       style="color:#000000;fill:#000000;fill-opacity:1;fill-rule:nonzero;stroke:none;stroke-width:4;marker:none;visibility:visible;display:inline;overflow:visible;enable-background:accumulate"
       id="path3818"
       sodipodi:cx="39.208984"
       sodipodi:cy="427.85645"
       sodipodi:rx="14.233398"
       sodipodi:ry="14.233398"
       d="m 53.442383,427.85645 c 0,7.86088 -6.37251,14.23339 -14.233399,14.23339 -7.860889,0 -14.233398,-6.37251 -14.233398,-14.23339 0,-7.86089 6.372509,-14.2334 14.233398,-14.2334 7.860889,0 14.233399,6.37251 14.233399,14.2334 z"
       transform="matrix(1.740332,0,0,1.7402979,-948.99293,-269.1706)" />
    <path
       style="fill:none;stroke:#1a1a1a;stroke-width:17.38832474;stroke-linecap:butt;stroke-linejoin:miter;stroke-miterlimit:4;stroke-opacity:1;stroke-dasharray:none;display:inline"
       d="m -1133.6221,383.63916 c 18.0113,-13.36298 38.5285,-7.8428 52.1128,0 66.4051,38.33822 140.10774,43.65988 209.63587,58.03364 35.94847,7.43176 34.11664,68.8645 -9.47507,68.69288 l -300.8333,-1.18435 c -37.5601,-0.1478 -52.557,-50.52161 -24.8721,-71.06161 z"
       id="path3820"
       inkscape:connector-curvature="0"
       sodipodi:nodetypes="sssssss" />
    <path
       style="font-size:medium;font-style:normal;font-variant:normal;font-weight:normal;font-stretch:normal;text-indent:0;text-align:start;text-decoration:none;line-height:normal;letter-spacing:normal;word-spacing:normal;text-transform:none;direction:ltr;block-progression:tb;writing-mode:lr-tb;text-anchor:start;baseline-shift:baseline;color:#000000;fill:#ffffff;fill-opacity:1;stroke:#ffffff;stroke-width:3;stroke-miterlimit:100;stroke-dasharray:none;marker:none;visibility:visible;display:inline;overflow:visible;filter:url(#filter5091);enable-background:accumulate;font-family:Sans;-inkscape-font-specification:Sans"
       d="m -991.0314,277.76135 -0.4375,0.59375 -86.1637,100.84379 -0.714,-8.375 -11.3775,24.67125 22.3959,-14.80656 -8.0231,0.71406 85.8199,-100.64129 -0.75,-3 z"
       id="path5077"
       inkscape:connector-curvature="0"
       sodipodi:nodetypes="cccccccccc" />
    <path
       style="fill:none;stroke:#000000;stroke-width:3;stroke-linecap:butt;stroke-linejoin:miter;stroke-miterlimit:4;stroke-opacity:1;stroke-dasharray:none;marker-end:url(#DotM)"
       d="m -711.62481,573.23716 -163.4051,0 -66.67615,-105.66081"
       id="path4012"
       inkscape:connector-curvature="0"
       sodipodi:nodetypes="ccc" />
    <path
       inkscape:connector-curvature="0"
       id="path4838"
       d="m -711.62481,413.23716 -89.56425,0"
       style="color:#000000;fill:none;stroke:#000000;stroke-width:3;stroke-linecap:butt;stroke-linejoin:miter;stroke-miterlimit:4;stroke-opacity:1;stroke-dasharray:none;stroke-dashoffset:0;marker:none;marker-end:url(#Arrow1Mend);visibility:visible;display:inline;overflow:visible;enable-background:accumulate"
       sodipodi:nodetypes="cc" />
    <rect
       transform="matrix(1,0,-0.59648548,0.80262387,0,0)"
       y="10.799074"
       x="-378.36954"
       height="227.87953"
       width="290.84344"
       id="rect5053"
       style="color:#000000;display:inline;overflow:visible;visibility:visible;fill:#bfbfbf;fill-opacity:0.510638;fill-rule:nonzero;stroke:none;stroke-width:1;marker:none;enable-background:accumulate" />
    <ellipse
       transform="matrix(1,0,-0.59648548,0.80262387,0,0)"
       id="path5057"
       style="color:#000000;display:inline;overflow:visible;visibility:visible;fill:#000000;fill-opacity:1;fill-rule:nonzero;stroke:none;stroke-width:4.46863;marker:none;enable-background:accumulate"
       cx="-291.71994"
       cy="142.31601"
       rx="14.245672"
       ry="17.748529" />
    <text
       id="text5063"
       y="105.0617"
       x="-705.17029"
       style="font-style:normal;font-variant:normal;font-weight:normal;font-stretch:normal;font-size:53.33333333px;line-height:0%;font-family:Calibri;-inkscape-font-specification:Calibri;letter-spacing:0px;word-spacing:0px;fill:#000000;fill-opacity:1;stroke:none;"
       xml:space="preserve"><tspan
         y="105.0617"
         x="-705.17029"
         id="tspan5065"
         sodipodi:role="line"
         style="line-height:1.25;font-size:53.33333333px;">wheel</tspan></text>
    <path
       inkscape:connector-curvature="0"
       id="path5067"
       d="m -711.62481,93.23716 -118.64639,0 -255.7441,298.16566"
       style="fill:none;stroke:#000000;stroke-width:3;stroke-linecap:butt;stroke-linejoin:miter;stroke-miterlimit:4;stroke-opacity:1;stroke-dasharray:none;marker-end:url(#Arrow1Mend)"
       sodipodi:nodetypes="ccc" />
    <ellipse
       style="color:#000000;display:inline;overflow:visible;visibility:visible;fill:#ffffff;fill-opacity:1;fill-rule:nonzero;stroke:none;stroke-width:0.959725;marker:none;enable-background:accumulate"
       id="path5069"
       transform="matrix(1,0,-0.59648549,0.80262386,0,0)"
       cx="-291.92642"
       cy="129.90663"
       rx="3.0595355"
       ry="3.8118424" />
    <path
       transform="matrix(1.740332,0,0,1.7402979,-1176.7312,-332.95171)"
       d="m 53.442383,427.85645 c 0,7.86088 -6.37251,14.23339 -14.233399,14.23339 -7.860889,0 -14.233398,-6.37251 -14.233398,-14.23339 0,-7.86089 6.372509,-14.2334 14.233398,-14.2334 7.860889,0 14.233399,6.37251 14.233399,14.2334 z"
       sodipodi:ry="14.233398"
       sodipodi:rx="14.233398"
       sodipodi:cy="427.85645"
       sodipodi:cx="39.208984"
       id="path3816"
       style="color:#000000;fill:#000000;fill-opacity:1;fill-rule:nonzero;stroke:none;stroke-width:4;marker:none;visibility:visible;display:inline;overflow:visible;enable-background:accumulate"
       sodipodi:type="arc" />
    <path
       sodipodi:type="arc"
       style="color:#000000;fill:#ffffff;fill-opacity:1;fill-rule:nonzero;stroke:none;stroke-width:4;marker:none;visibility:visible;display:inline;overflow:visible;enable-background:accumulate"
       id="path5071"
       sodipodi:cx="39.208984"
       sodipodi:cy="427.85645"
       sodipodi:rx="14.233398"
       sodipodi:ry="14.233398"
       d="m 53.442383,427.85645 c 0,7.86088 -6.37251,14.23339 -14.233399,14.23339 -7.860889,0 -14.233398,-6.37251 -14.233398,-14.23339 0,-7.86089 6.372509,-14.2334 14.233398,-14.2334 7.860889,0 14.233399,6.37251 14.233399,14.2334 z"
       transform="matrix(0.47570082,0,0,0.47569146,-1127.1464,192.11823)" />
  </g>
</svg>
