<?xml version="1.0" encoding="UTF-8" standalone="no"?>
<svg
   xmlns:dc="http://purl.org/dc/elements/1.1/"
   xmlns:cc="http://creativecommons.org/ns#"
   xmlns:rdf="http://www.w3.org/1999/02/22-rdf-syntax-ns#"
   xmlns:svg="http://www.w3.org/2000/svg"
   xmlns="http://www.w3.org/2000/svg"
   xmlns:xlink="http://www.w3.org/1999/xlink"
   xmlns:sodipodi="http://sodipodi.sourceforge.net/DTD/sodipodi-0.dtd"
   xmlns:inkscape="http://www.inkscape.org/namespaces/inkscape"
   width="400"
   height="300"
   id="svg3166"
   version="1.1"
   inkscape:version="1.0.1 (3bc2e813f5, 2020-09-07)"
   inkscape:export-filename="C:\Users\hj.vanderpol\OneDrive - personal\OneDrive\03 HenkJan\09 Python\01 PIL\Animate\Examples\Example 10 - Canvas (robot)\Pictures\Brush.png"
   inkscape:export-xdpi="90"
   inkscape:export-ydpi="90"
   sodipodi:docname="Canvas Example.svg">
  <defs
     id="defs3168">
    <linearGradient
       id="linearGradient4550">
      <stop
         style="stop-color:#ff1919;stop-opacity:1"
         offset="0"
         id="stop4552" />
      <stop
         id="stop4560"
         offset="0.5"
         style="stop-color:#a00000;stop-opacity:1" />
      <stop
         style="stop-color:#000000;stop-opacity:1"
         offset="1"
         id="stop4554" />
    </linearGradient>
    <marker
       inkscape:stockid="DotM"
       orient="auto"
       refY="0.0"
       refX="0.0"
       id="DotM"
       style="overflow:visible">
      <path
         id="path4137"
         d="M -2.5,-1.0 C -2.5,1.7600000 -4.7400000,4.0 -7.5,4.0 C -10.260000,4.0 -12.5,1.7600000 -12.5,-1.0 C -12.5,-3.7600000 -10.260000,-6.0 -7.5,-6.0 C -4.7400000,-6.0 -2.5,-3.7600000 -2.5,-1.0 z "
         style="fill-rule:evenodd;stroke:#000000;stroke-width:1.0pt"
         transform="scale(0.4) translate(7.4, 1)" />
    </marker>
    <radialGradient
       inkscape:collect="always"
       xlink:href="#linearGradient4550"
       id="radialGradient4556"
       cx="107.04942"
       cy="102.25291"
       fx="107.04942"
       fy="102.25291"
       r="45.130814"
       gradientUnits="userSpaceOnUse"
       gradientTransform="translate(-4.5682759e-6,-4.431724e-6)" />
    <filter
       inkscape:label="Pointillism"
       style="color-interpolation-filters:sRGB;"
       inkscape:menu-tooltip="Gives a turbulent pointillist HSL sensitive transparency"
       inkscape:menu="Scatter"
       height="1.2"
       width="1.2"
       y="-0.1"
       x="-0.1"
       id="filter92">
      <feTurbulence
         seed="50"
         type="fractalNoise"
         baseFrequency="1"
         numOctaves="3"
         result="result1"
         id="feTurbulence74" />
      <feColorMatrix
         type="luminanceToAlpha"
         in="SourceGraphic"
         result="result0"
         id="feColorMatrix76" />
      <feColorMatrix
         result="result2"
         values="1 0 0 0 0 0 1 0 0 0 0 0 1 0 0 0 0 0 0.5 0 "
         id="feColorMatrix78" />
      <feComposite
         result="result3"
         operator="over"
         in="result1"
         in2="result2"
         id="feComposite80" />
      <feColorMatrix
         result="result91"
         values="1 0 0 0 0 0 1 0 0 0 0 0 1 0 0 0 0 0 5 -3.2"
         id="feColorMatrix82" />
      <feComposite
         in2="result91"
         operator="arithmetic"
         k1="1.5"
         result="result93"
         id="feComposite84" />
      <feComposite
         in2="result93"
         in="SourceGraphic"
         operator="out"
         result="result4"
         id="feComposite86" />
      <feComposite
         in2="result4"
         operator="arithmetic"
         k2="0.5"
         k1="1"
         id="feComposite88" />
      <feDisplacementMap
         scale="15"
         xChannelSelector="R"
         yChannelSelector="A"
         in2="result1"
         result="result92"
         id="feDisplacementMap90" />
    </filter>
  </defs>
  <sodipodi:namedview
     id="base"
     pagecolor="#ffffff"
     bordercolor="#666666"
     borderopacity="1.0"
     inkscape:pageopacity="0.0"
     inkscape:pageshadow="2"
     inkscape:zoom="2.2933333"
     inkscape:cx="113.88082"
     inkscape:cy="150"
     inkscape:document-units="px"
     inkscape:current-layer="layer3"
     showgrid="false"
     inkscape:object-nodes="true"
     inkscape:window-width="1600"
     inkscape:window-height="848"
     inkscape:window-x="-8"
     inkscape:window-y="-8"
     inkscape:window-maximized="1"
     inkscape:document-rotation="0" />
  <metadata
     id="metadata3171">
    <rdf:RDF>
      <cc:Work
         rdf:about="">
        <dc:format>image/svg+xml</dc:format>
        <dc:type
           rdf:resource="http://purl.org/dc/dcmitype/StillImage" />
        <dc:title />
      </cc:Work>
    </rdf:RDF>
  </metadata>
  <g
     inkscape:groupmode="layer"
     id="layer3"
     inkscape:label="Background"
     style="display:inline">
    <rect
       y="0"
       x="0"
       height="300"
       width="400"
       id="rect4524"
       style="color:#000000;display:inline;overflow:visible;visibility:visible;fill:#ffffff;fill-opacity:1;fill-rule:nonzero;stroke:none;stroke-width:3;marker:none;enable-background:accumulate" />
  </g>
  <g
     inkscape:label="Mask"
     inkscape:groupmode="layer"
     id="layer1"
     transform="translate(0,-752.36218)"
     style="display:none">
    <rect
       style="color:#000000;display:inline;overflow:visible;visibility:visible;fill:#ffffff;fill-opacity:1;fill-rule:nonzero;stroke:none;stroke-width:3;marker:none;enable-background:accumulate"
       id="rect4521"
       width="400"
       height="300"
       x="0"
       y="752.36218" />
    <rect
       transform="matrix(0.78360154,0.62126374,-0.88210982,0.47104381,0,0)"
       y="1000.7579"
       x="728.40643"
       height="274.22076"
       width="237.22371"
       id="rect3277"
       style="color:#000000;display:inline;overflow:visible;visibility:visible;fill:#80c8ff;fill-opacity:1;fill-rule:nonzero;stroke:#000000;stroke-width:1.0442;stroke-linecap:butt;stroke-linejoin:miter;stroke-miterlimit:4;stroke-dasharray:none;stroke-dashoffset:0;stroke-opacity:1;marker:none;enable-background:accumulate" />
    <g
       id="g3235"
       transform="matrix(0.46472217,0.36844623,-0.80630937,0.43056661,545.58862,638.95223)">
      <rect
         transform="translate(0,752.36218)"
         y="-1.1368684e-13"
         x="-540"
         height="300.00003"
         width="400"
         id="rect3219"
         style="color:#000000;display:inline;overflow:visible;visibility:visible;fill:#ffffff;fill-opacity:1;fill-rule:nonzero;stroke:#000000;stroke-width:1.41823;stroke-linecap:butt;stroke-linejoin:miter;stroke-miterlimit:4;stroke-dasharray:none;stroke-dashoffset:0;stroke-opacity:1;marker:none;enable-background:accumulate" />
      <circle
         transform="translate(0,752.36218)"
         id="path3221"
         style="color:#000000;display:inline;overflow:visible;visibility:visible;fill:#ff0000;fill-opacity:1;fill-rule:nonzero;stroke:#000000;stroke-width:1.41823;stroke-linecap:butt;stroke-linejoin:miter;stroke-miterlimit:4;stroke-dasharray:none;stroke-dashoffset:0;stroke-opacity:1;marker:none;enable-background:accumulate"
         cx="-213.96149"
         cy="218.66351"
         r="59.601013" />
      <circle
         style="color:#000000;display:inline;overflow:visible;visibility:visible;fill:#ff0000;fill-opacity:1;fill-rule:nonzero;stroke:#000000;stroke-width:1.41823;stroke-linecap:butt;stroke-linejoin:miter;stroke-miterlimit:4;stroke-dasharray:none;stroke-dashoffset:0;stroke-opacity:1;marker:none;enable-background:accumulate"
         id="path3223"
         transform="translate(-60,752.36218)"
         cx="-213.96149"
         cy="218.66351"
         r="59.601013" />
      <circle
         transform="translate(-120,752.36218)"
         id="path3225"
         style="color:#000000;display:inline;overflow:visible;visibility:visible;fill:#ff0000;fill-opacity:1;fill-rule:nonzero;stroke:#000000;stroke-width:1.41823;stroke-linecap:butt;stroke-linejoin:miter;stroke-miterlimit:4;stroke-dasharray:none;stroke-dashoffset:0;stroke-opacity:1;marker:none;enable-background:accumulate"
         cx="-213.96149"
         cy="218.66351"
         r="59.601013" />
      <circle
         style="color:#000000;display:inline;overflow:visible;visibility:visible;fill:#ff0000;fill-opacity:1;fill-rule:nonzero;stroke:#000000;stroke-width:1.41823;stroke-linecap:butt;stroke-linejoin:miter;stroke-miterlimit:4;stroke-dasharray:none;stroke-dashoffset:0;stroke-opacity:1;marker:none;enable-background:accumulate"
         id="path3227"
         transform="translate(-180,752.36218)"
         cx="-213.96149"
         cy="218.66351"
         r="59.601013" />
      <circle
         transform="translate(-240,752.36218)"
         id="path3229"
         style="color:#000000;display:inline;overflow:visible;visibility:visible;fill:#ff0000;fill-opacity:1;fill-rule:nonzero;stroke:#000000;stroke-width:1.41823;stroke-linecap:butt;stroke-linejoin:miter;stroke-miterlimit:4;stroke-dasharray:none;stroke-dashoffset:0;stroke-opacity:1;marker:none;enable-background:accumulate"
         cx="-213.96149"
         cy="218.66351"
         r="59.601013" />
    </g>
    <path
       style="color:#000000;display:inline;overflow:visible;visibility:visible;fill:#000000;fill-opacity:1;fill-rule:nonzero;stroke:none;stroke-width:1;marker:none;enable-background:accumulate"
       d="M 0,0 V 300 H 400 V 0 Z m 284.71875,16.1875 c 0.46152,-0.0012 0.86021,0.04138 1.1875,0.09375 0.65442,0.104984 1.12638,0.317268 1.40625,0.65625 0.27971,0.339218 0.40484,0.753919 0.40625,1.28125 l 0.1875,92.34375 c 0.0334,1.20699 -0.13326,2.34448 -0.53125,3.375 -0.39816,1.03056 -0.93137,1.92004 -1.59375,2.6875 -0.66255,0.7675 -1.43129,1.37497 -2.3125,1.84375 -0.88137,0.46882 -1.83001,0.82586 -2.84375,1.03125 l -8.53125,1.71875 c -1.82494,0.36974 -3.35603,0.49363 -4.59375,0.375 -1.23784,-0.11861 -2.3538,-0.53826 -3.375,-1.28125 -1.02132,-0.74296 -2.0227,-1.84333 -3,-3.28125 -0.97742,-1.43788 -2.07866,-3.30435 -3.28125,-5.59375 l -23.4375,-41 c -1.80334,-3.17027 -3.52012,-6.399205 -5.15625,-9.65625 -1.63618,-3.256897 -3.23142,-6.49698 -4.78125,-9.71875 l -0.15625,0.03125 c 0.30442,4.107356 0.52953,8.176215 0.65625,12.1875 0.12668,4.011428 0.17647,8.057547 0.15625,12.125 l 0.15625,52.28125 c 0.001,0.52746 -0.1395,1.0487 -0.4375,1.53125 -0.29804,0.48256 -0.82226,0.905 -1.53125,1.3125 -0.70903,0.40751 -1.62085,0.82533 -2.78125,1.21875 -1.16044,0.39343 -2.63209,0.76554 -4.40625,1.125 -1.77419,0.35946 -3.26616,0.57724 -4.4375,0.65625 -1.17136,0.079 -2.05911,0.0677 -2.71875,-0.0625 -0.65965,-0.13021 -1.14667,-0.38042 -1.40625,-0.75 -0.25958,-0.36958 -0.36187,-0.83728 -0.3125,-1.375 L 207.03125,39.25 c -0.0265,-2.474802 0.65049,-4.480016 2.03125,-6 1.38075,-1.51978 3.09736,-2.464084 5.125,-2.875 l 10.40625,-2.125 c 1.67277,-0.338813 3.16921,-0.451222 4.4375,-0.3125 1.26823,0.138936 2.40036,0.551918 3.40625,1.21875 1.00583,0.667043 1.94306,1.591772 2.84375,2.78125 0.90063,1.189684 1.83335,2.686823 2.78125,4.5 l 23.65625,41.375 c 1.5382,2.643604 2.99312,5.277497 4.34375,7.90625 1.35051,2.628851 2.72957,5.230395 4.15625,7.84375 L 270.375,93.53125 C 270.19307,89.768584 270.03879,85.891545 269.9375,81.875 269.83608,77.858561 269.77972,73.949833 269.75,70.15625 L 269.6875,21.875 c -10e-4,-0.527335 0.15963,-1.016563 0.4375,-1.46875 0.27774,-0.451958 0.74863,-0.872857 1.4375,-1.25 0.68873,-0.376912 1.60972,-0.73069 2.75,-1.09375 1.14014,-0.362827 2.60075,-0.734172 4.375,-1.09375 1.7741,-0.359342 3.24586,-0.577892 4.4375,-0.6875 0.59574,-0.05469 1.13223,-0.09259 1.59375,-0.09375 z M 158.875,41.5625 c 0.30145,-0.0017 0.58883,0.01036 0.84375,0.03125 1.01956,0.08378 1.73908,0.379135 2.15625,0.875 0.41707,0.496088 0.76593,1.213776 1.0625,2.15625 l 30.53125,84.59375 c 0.6231,1.77354 1.02833,3.21163 1.21875,4.28125 0.19025,1.06966 -0.0173,1.92287 -0.59375,2.59375 -0.57657,0.67092 -1.64184,1.24241 -3.1875,1.6875 -1.54582,0.44512 -3.66902,0.94542 -6.40625,1.5 -1.92632,0.39029 -3.51809,0.67331 -4.75,0.84375 -1.23205,0.17046 -2.20626,0.22551 -2.90625,0.15625 -0.70013,-0.0692 -1.1957,-0.30206 -1.53125,-0.65625 -0.33568,-0.35416 -0.61809,-0.86308 -0.8125,-1.5625 l -6.65625,-19.21875 -36.96875,7.46875 -6.28125,21.375 c -0.21107,0.78157 -0.48512,1.45726 -0.84375,2.03125 -0.35866,0.574 -0.93962,1.07195 -1.75,1.5 -0.8104,0.42805 -1.91961,0.85592 -3.34375,1.25 -1.42416,0.39409 -3.22655,0.80838 -5.40625,1.25 -2.33178,0.47243 -4.17657,0.76518 -5.5,0.875 -1.32342,0.10982 -2.26352,-0.0981 -2.8125,-0.59375 -0.54898,-0.49565 -0.73881,-1.30623 -0.625,-2.4375 0.11382,-1.13126 0.45884,-2.68693 1.0625,-4.65625 l 30.0625,-96.9375 c 0.33229,-0.964342 0.69465,-1.771188 1.09375,-2.40625 0.39904,-0.634849 1.05618,-1.187342 1.9375,-1.65625 0.88126,-0.468691 2.10611,-0.91284 3.6875,-1.3125 1.58132,-0.399441 3.66473,-0.851104 6.25,-1.375 2.99072,-0.605836 5.36072,-1.065349 7.125,-1.34375 1.32314,-0.208633 2.43941,-0.307339 3.34375,-0.3125 z M 78.3125,56.875 c 0.843733,-0.02749 1.701964,-0.02325 2.53125,0 3.317039,0.09324 6.271332,0.511103 8.875,1.25 2.603546,0.739122 4.486884,1.482891 5.625,2.28125 1.137983,0.798579 1.848072,1.979384 2.15625,3.5 0.287499,1.419448 0.436289,3.363817 0.4375,5.84375 0.0011,2.480134 -0.214006,4.500239 -0.65625,6.09375 -0.442382,1.5937 -1.118883,2.502727 -2.03125,2.6875 C 94.590953,78.664856 93.706829,78.401625 92.625,77.75 91.543042,77.09856 90.165107,76.446631 88.5,75.78125 86.834773,75.116059 84.79424,74.593081 82.34375,74.21875 79.893152,73.844612 76.958735,73.999486 73.5625,74.6875 69.811339,75.447597 66.539127,76.878227 63.75,79 c -2.789198,2.121956 -5.158731,4.673608 -7.09375,7.625 -1.935075,2.951559 -3.478435,6.186826 -4.65625,9.75 -1.177863,3.563322 -2.007168,7.21799 -2.5,10.90625 -0.492874,3.68839 -0.704071,7.27282 -0.59375,10.8125 0.11028,3.53979 0.466802,6.77873 1.0625,9.71875 0.718899,3.5484 1.787312,6.5869 3.21875,9.09375 1.431389,2.50691 3.186465,4.47102 5.21875,5.90625 2.032225,1.43528 4.355827,2.35591 6.96875,2.75 2.612849,0.39414 5.427259,0.30374 8.46875,-0.3125 3.598998,-0.72917 6.594117,-1.75221 9,-3.03125 2.405774,-1.27898 4.416533,-2.56669 6.03125,-3.84375 1.614596,-1.277 2.962757,-2.4045 4,-3.40625 1.037114,-1.00168 2.036808,-1.58608 3,-1.78125 0.658912,-0.13348 1.143005,0.002 1.46875,0.4375 0.325607,0.43538 0.575335,1.07579 0.75,1.9375 0.07182,0.35487 0.113778,0.89482 0.15625,1.625 0.04233,0.73024 0.09727,1.58213 0.125,2.5 0.02759,0.91793 0.0234,1.88854 0.03125,2.96875 0.0077,1.08027 -0.0201,2.09284 -0.09375,3.03125 -0.07379,0.93846 -0.194499,1.82325 -0.375,2.625 -0.18064,0.80179 -0.492943,1.5482 -0.9375,2.21875 -0.444694,0.67059 -1.401442,1.59678 -2.84375,2.8125 -1.44244,1.21575 -3.22859,2.45472 -5.40625,3.6875 -2.177781,1.23281 -4.699077,2.40333 -7.53125,3.53125 -2.832279,1.12794 -5.904454,2.04092 -9.25,2.71875 -5.525336,1.11947 -10.672999,1.38389 -15.40625,0.8125 -4.733308,-0.57138 -8.926932,-2.04197 -12.625,-4.40625 -3.698099,-2.36426 -6.850655,-5.63992 -9.4375,-9.8125 -2.586857,-4.17254 -4.496586,-9.28026 -5.71875,-15.3125 -0.955137,-4.7142 -1.462209,-9.71039 -1.53125,-15 -0.06904,-5.28951 0.378103,-10.55071 1.34375,-15.8125 0.965646,-5.261652 2.486235,-10.378316 4.59375,-15.34375 2.107505,-4.96527 4.894315,-9.497342 8.3125,-13.59375 3.418159,-4.096216 7.506943,-7.645941 12.3125,-10.625 4.805506,-2.978847 10.382363,-5.091101 16.71875,-6.375 2.661233,-0.539106 5.25005,-0.855041 7.78125,-0.9375 z m 70.625,6.25 -0.0625,0.03125 -13.5,46.25 27.6875,-5.59375 z m 201.53125,78 c 1.70024,-0.008 3.31722,0.0666 4.8125,0.21875 1.99362,0.20305 3.72571,0.52622 5.1875,0.96875 1.46169,0.44275 2.48922,0.84 3.09375,1.21875 0.60442,0.37897 1.07025,0.82657 1.40625,1.3125 0.33589,0.48614 0.58562,1.12655 0.75,1.9375 0.0821,0.40563 0.17193,1.00559 0.25,1.78125 0.078,0.77587 0.1234,1.61936 0.15625,2.5625 0.0327,0.94335 0.038,1.92235 0,2.90625 -0.0382,0.98409 -0.14225,1.89763 -0.3125,2.75 -0.17036,0.85256 -0.41598,1.56727 -0.71875,2.15625 -0.30288,0.58916 -0.66884,0.93891 -1.125,1.03125 -0.70972,0.14388 -1.68217,0.0118 -2.875,-0.40625 -1.19293,-0.41787 -2.61756,-0.85938 -4.3125,-1.28125 -1.69503,-0.42168 -3.66834,-0.72485 -5.875,-0.9375 -2.20674,-0.21246 -4.61411,-0.0652 -7.25,0.46875 -2.73733,0.55469 -4.97193,1.41709 -6.71875,2.5625 -1.74687,1.14559 -3.12882,2.44918 -4.09375,3.9375 -0.96498,1.4885 -1.57407,3.08591 -1.84375,4.75 -0.26972,1.66426 -0.22465,3.27242 0.0937,4.84375 0.36971,1.82495 1.14886,3.35344 2.34375,4.5625 1.19484,1.2092 2.6754,2.24195 4.4375,3.125 1.76205,0.88319 3.72868,1.68653 5.90625,2.40625 2.17751,0.71986 4.37619,1.47041 6.625,2.28125 2.24873,0.81097 4.50566,1.76328 6.75,2.8125 2.24425,1.04934 4.31284,2.37601 6.21875,3.96875 1.90581,1.59285 3.55815,3.50767 4.96875,5.78125 1.41049,2.27369 2.44666,5.02528 3.09375,8.21875 0.96535,4.76498 0.91193,9.3729 -0.1875,13.84375 -1.09955,4.47091 -3.11938,8.58263 -6.03125,12.3125 -2.91198,3.7299 -6.69994,6.9524 -11.34375,9.6875 -4.64389,2.73512 -10.01089,4.70507 -16.09375,5.9375 -3.29493,0.66757 -6.38544,1.02989 -9.28125,1.0625 -2.89585,0.0326 -5.5041,-0.11362 -7.8125,-0.4375 -2.30842,-0.32387 -4.26676,-0.74269 -5.90625,-1.28125 -1.6395,-0.53855 -2.88627,-1.13342 -3.75,-1.75 -0.86372,-0.61657 -1.44189,-1.66677 -1.75,-3.1875 -0.0822,-0.40552 -0.1558,-1.0434 -0.21875,-1.875 -0.0629,-0.83158 -0.11242,-1.74501 -0.125,-2.71875 -0.0126,-0.97371 0.009,-1.96016 0.0625,-3 0.0532,-1.0398 0.18449,-1.99204 0.375,-2.875 0.19051,-0.88292 0.42183,-1.62452 0.75,-2.21875 0.32817,-0.59418 0.77434,-0.95977 1.28125,-1.0625 0.86174,-0.17457 1.96207,0.0182 3.3125,0.5625 1.35042,0.54438 3.00456,1.1092 4.96875,1.6875 1.96417,0.57834 4.24625,1.02569 6.84375,1.34375 2.59747,0.3181 5.6037,0.12563 9,-0.5625 2.99073,-0.60593 5.52328,-1.50134 7.625,-2.71875 2.10165,-1.21737 3.77752,-2.65515 5.03125,-4.28125 1.25366,-1.62604 2.09983,-3.40445 2.53125,-5.3125 0.43134,-1.90799 0.42104,-3.89039 0,-5.96875 -0.38004,-1.87552 -1.14379,-3.42173 -2.34375,-4.65625 -1.20004,-1.23443 -2.66955,-2.29919 -4.40625,-3.1875 -1.73676,-0.88821 -3.6647,-1.66433 -5.78125,-2.34375 -2.11661,-0.67932 -4.30784,-1.43391 -6.53125,-2.25 -2.22345,-0.81599 -4.40529,-1.74699 -6.59375,-2.78125 -2.18849,-1.03415 -4.24449,-2.33951 -6.125,-3.9375 -1.88052,-1.59787 -3.52183,-3.5447 -4.9375,-5.84375 -1.41568,-2.29892 -2.45743,-5.11128 -3.125,-8.40625 -0.92433,-4.5621 -0.85683,-8.93394 0.1875,-13.15625 1.04433,-4.22214 2.90927,-8.04871 5.59375,-11.46875 2.68447,-3.41985 6.11425,-6.38352 10.3125,-8.84375 4.19822,-2.46002 9.01356,-4.21347 14.4375,-5.3125 2.53451,-0.5134 4.9856,-0.82416 7.34375,-0.90625 0.58952,-0.0205 1.152,-0.0286 1.71875,-0.0312 z m -84.03125,17.9375 c 0.30145,-0.002 0.58883,0.0104 0.84375,0.0312 1.01956,0.0838 1.73908,0.37913 2.15625,0.875 0.41707,0.49609 0.76593,1.21378 1.0625,2.15625 l 30.53125,84.59375 c 0.6231,1.77354 1.02833,3.21163 1.21875,4.28125 0.19025,1.06966 -0.0174,1.92287 -0.59375,2.59375 -0.57657,0.67092 -1.61059,1.24241 -3.15625,1.6875 -1.54582,0.44512 -3.70027,0.94542 -6.4375,1.5 -1.92632,0.39029 -3.51809,0.67331 -4.75,0.84375 -1.23205,0.17046 -2.17501,0.22551 -2.875,0.15625 -0.70013,-0.0692 -1.22695,-0.30206 -1.5625,-0.65625 -0.33568,-0.35416 -0.61809,-0.86308 -0.8125,-1.5625 l -6.65625,-19.25 -36.9375,7.5 -6.28125,21.375 c -0.21107,0.78157 -0.51637,1.45726 -0.875,2.03125 -0.35866,0.574 -0.93962,1.07195 -1.75,1.5 -0.8104,0.42805 -1.91961,0.85592 -3.34375,1.25 -1.42416,0.39409 -3.22655,0.80838 -5.40625,1.25 -2.33178,0.47243 -4.14532,0.76518 -5.46875,0.875 -1.32342,0.10982 -2.26352,-0.0981 -2.8125,-0.59375 -0.54898,-0.49565 -0.77006,-1.30623 -0.65625,-2.4375 0.11382,-1.13126 0.45884,-2.68693 1.0625,-4.65625 L 243,167.4375 c 0.33229,-0.96434 0.7259,-1.73994 1.125,-2.375 0.39904,-0.63485 1.02493,-1.18734 1.90625,-1.65625 0.88126,-0.46869 2.10611,-0.91284 3.6875,-1.3125 1.58132,-0.39944 3.66473,-0.8511 6.25,-1.375 2.99072,-0.60584 5.36072,-1.06535 7.125,-1.34375 1.32314,-0.20863 2.43941,-0.30734 3.34375,-0.3125 z m -61.59375,12.40625 c 0.89389,0.0168 1.5418,0.18246 1.96875,0.53125 0.56911,0.46528 0.79019,1.27587 0.65625,2.4375 -0.13411,1.16186 -0.50044,2.76136 -1.09375,4.78125 L 177.4375,275.875 c -0.28167,0.95419 -0.63223,1.74006 -1.03125,2.375 -0.39912,0.63497 -1.03091,1.21358 -1.9375,1.6875 -0.90669,0.47394 -2.16869,0.91296 -3.75,1.3125 -1.5814,0.39956 -3.66481,0.85122 -6.25,1.375 -2.99079,0.60595 -5.3667,1.06033 -7.15625,1.34375 -1.78961,0.28343 -3.18736,0.37519 -4.15625,0.28125 -0.96895,-0.0939 -1.65131,-0.38415 -2.09375,-0.875 -0.44249,-0.49083 -0.82851,-1.21366 -1.125,-2.15625 L 119.90625,194.75 c -0.42937,-1.33774 -0.69373,-2.40323 -0.8125,-3.25 -0.11876,-0.84657 0.11582,-1.56051 0.6875,-2.125 0.57169,-0.56428 1.53793,-1.05949 2.90625,-1.46875 1.36832,-0.40906 3.2974,-0.87165 5.78125,-1.375 2.48384,-0.50314 4.4292,-0.85009 5.84375,-1.03125 1.41453,-0.18095 2.52098,-0.19228 3.3125,-0.0625 0.79149,0.12998 1.31952,0.44053 1.625,0.90625 0.30545,0.46593 0.60928,1.08459 0.875,1.875 l 23.71875,74.03125 0.125,-0.0312 22.84375,-83.78125 c 0.21099,-0.78145 0.51629,-1.45714 0.875,-2.03125 0.35859,-0.57388 0.93364,-1.07697 1.71875,-1.5 0.78498,-0.4228 1.84523,-0.83482 3.21875,-1.21875 1.37339,-0.3837 3.21884,-0.78772 5.5,-1.25 2.43308,-0.49286 4.35046,-0.81216 5.75,-0.9375 0.34985,-0.0313 0.67079,-0.0369 0.96875,-0.0312 z m 51.59375,9.15625 -13.5,46.28125 27.6875,-5.59375 -14.09375,-40.6875 h -0.0937 z"
       transform="translate(0,752.36218)"
       id="rect3187"
       inkscape:connector-curvature="0" />
    <path
       id="path3215"
       d="m -311.99803,603.9333 -241.89282,129.16999 185.88886,147.37851 241.89283,-129.17001 z m 119.26299,111.87335 c 0.21528,0.16961 0.36637,0.33476 0.4763,0.47787 0.21948,0.28632 0.26764,0.55162 0.12438,0.80069 -0.14353,0.24911 -0.41976,0.47377 -0.84429,0.70134 l -74.3705,39.82922 c -0.95768,0.532 -1.9523,0.96036 -2.96818,1.25743 -1.01598,0.29702 -1.98097,0.48354 -2.9076,0.56993 -0.92675,0.0864 -1.77381,0.0647 -2.56131,-0.0582 -0.7876,-0.12288 -1.51634,-0.31867 -2.15306,-0.60375 l -5.3505,-2.40327 c -1.14622,-0.51319 -1.95764,-1.02398 -2.43719,-1.53109 -0.47961,-0.50714 -0.65986,-1.099 -0.53535,-1.79517 0.12443,-0.69619 0.5463,-1.53893 1.25154,-2.51813 0.70514,-0.97923 1.69833,-2.18862 2.98542,-3.61745 l 22.16676,-26.28869 c 1.71816,-2.02944 3.52386,-4.05225 5.3897,-6.05746 1.8657,-2.00515 3.73686,-3.98798 5.61437,-5.9462 l -0.0978,-0.0441 c -3.17034,1.88066 -6.34648,3.71551 -9.52193,5.48933 -3.17558,1.77386 -6.41486,3.53433 -9.70388,5.27819 l -42.08225,22.56813 c -0.42483,0.22747 -0.91041,0.40013 -1.43798,0.49811 -0.5276,0.098 -1.11183,0.0867 -1.76989,9.3e-4 -0.65808,-0.0858 -1.41871,-0.24183 -2.27519,-0.49999 -0.85651,-0.25816 -1.84046,-0.64016 -2.95479,-1.13907 -1.11434,-0.49893 -1.98329,-0.95487 -2.59134,-1.35242 -0.60806,-0.39757 -1.0115,-0.72953 -1.21307,-1.02863 -0.20156,-0.29911 -0.22615,-0.58628 -0.0488,-0.84105 0.17736,-0.25477 0.50693,-0.49384 0.96345,-0.70717 l 74.15439,-39.73309 c 1.98314,-1.07533 3.91458,-1.68928 5.78183,-1.83499 1.86707,-0.14564 3.42622,0.0803 4.69984,0.6504 l 6.54942,2.91919 c 1.05056,0.47045 1.83662,0.97341 2.31417,1.50043 0.47735,0.5271 0.67049,1.12204 0.60028,1.77977 -0.0704,0.6578 -0.38048,1.40128 -0.921,2.24529 -0.54071,0.84407 -1.31441,1.83234 -2.33588,2.96229 l -22.36747,26.53075 c -1.41672,1.70499 -2.86433,3.37512 -4.35625,5.0046 -1.49205,1.62949 -2.94882,3.25774 -4.39298,4.90861 l 0.0978,0.0441 c 2.94933,-1.68711 6.00371,-3.41327 9.19522,-5.17999 3.19137,-1.76671 6.31682,-3.47044 9.36181,-5.11478 l 38.90058,-20.81133 c 0.42472,-0.22741 0.89384,-0.37888 1.38758,-0.47119 0.49349,-0.0923 1.0517,-0.1 1.67592,-0.009 0.62398,0.0915 1.33724,0.27848 2.15989,0.54229 0.8224,0.26386 1.80059,0.64213 2.91506,1.14102 1.1142,0.49894 1.97438,0.94711 2.61654,1.33897 0.32096,0.19595 0.60084,0.37729 0.81621,0.54687 z m -78.94249,-35.44103 c 0.14171,0.11021 0.26526,0.22143 0.36696,0.32431 0.40624,0.41173 0.50248,0.804 0.29653,1.17121 -0.20618,0.36726 -0.62273,0.80481 -1.24483,1.31988 l -54.02019,47.67237 c -1.14045,0.9932 -2.11168,1.7617 -2.88563,2.29241 -0.77406,0.53065 -1.55847,0.82154 -2.36729,0.89801 -0.80892,0.0764 -1.76477,-0.07 -2.84195,-0.44784 -1.07728,-0.3779 -2.46738,-0.94477 -4.18659,-1.71451 -1.2099,-0.5417 -2.17783,-1.00632 -2.88776,-1.38683 -0.71,-0.38055 -1.20713,-0.71579 -1.47658,-1.00352 -0.26957,-0.28775 -0.31212,-0.57061 -0.18247,-0.84674 0.12957,-0.27617 0.40867,-0.59935 0.88227,-0.97212 l 12.40296,-10.72742 -23.20233,-10.40521 -20.15389,6.88906 c -0.72828,0.25875 -1.40045,0.44871 -2.02993,0.56371 -0.6295,0.115 -1.30098,0.11535 -2.02273,10e-4 -0.72175,-0.11428 -1.58222,-0.33874 -2.5618,-0.69378 -0.9796,-0.35505 -2.15125,-0.84075 -3.52029,-1.45371 -1.46455,-0.65572 -2.55792,-1.20938 -3.26149,-1.6497 -0.70357,-0.44033 -0.97281,-0.87623 -0.82829,-1.29191 0.14453,-0.41568 0.70989,-0.83463 1.67493,-1.27978 0.96504,-0.44515 2.37973,-0.98785 4.24815,-1.61335 l 92.13232,-30.66164 c 0.93198,-0.29278 1.75095,-0.50667 2.44847,-0.63306 0.69733,-0.12632 1.4482,-0.12209 2.23585,7.3e-4 0.78745,0.1229 1.71479,0.38295 2.77195,0.79353 1.05694,0.41065 2.38933,0.9838 4.01318,1.71076 1.87835,0.84107 3.35025,1.51643 4.39463,2.04661 0.78311,0.39767 1.38146,0.76646 1.80588,1.09744 z m -49.78579,-23.0899 c 0.41428,0.29903 0.80965,0.61709 1.17633,0.93263 1.46635,1.26228 2.50232,2.53071 3.11652,3.80817 0.61397,1.27751 0.88949,2.29166 0.77467,3.05474 -0.11506,0.76312 -0.73715,1.53317 -1.82002,2.30144 -1.01091,0.7171 -2.50953,1.6091 -4.50856,2.67732 -1.99929,1.06823 -3.72804,1.8588 -5.21842,2.38198 -1.4906,0.5232 -2.53794,0.66534 -3.11092,0.40874 -0.41401,-0.1853 -0.61263,-0.62439 -0.58997,-1.30355 0.0224,-0.67914 -0.0923,-1.46753 -0.32956,-2.36752 -0.23752,-0.89996 -0.76411,-1.87696 -1.60108,-2.94101 -0.83718,-1.06401 -2.32575,-2.07849 -4.4588,-3.03359 -2.35613,-1.05483 -5.03033,-1.64448 -8.0373,-1.75856 -3.00716,-0.11403 -6.16575,0.11158 -9.44473,0.6694 -3.27914,0.55788 -6.60501,1.38223 -10.02538,2.48245 -3.42052,1.10027 -6.75271,2.36829 -9.95562,3.77475 -3.20303,1.4065 -6.19134,2.87202 -8.99415,4.43674 -2.80291,1.56475 -5.24882,3.09068 -7.34255,4.57604 -2.52702,1.7927 -4.48047,3.49463 -5.83655,5.1014 -1.35615,1.60678 -2.12421,3.09911 -2.33699,4.46587 -0.21287,1.36674 0.12465,2.61926 1.02118,3.75166 0.89645,1.1324 2.27726,2.13044 4.18758,2.98573 2.26048,1.01208 4.47726,1.67514 6.62663,2.01086 2.14927,0.33571 4.122,0.52212 5.90211,0.5672 1.77999,0.0451 3.31563,0.0563 4.60538,0.007 1.28963,-0.0492 2.22542,0.0675 2.8304,0.33839 0.41384,0.1853 0.52957,0.422 0.3298,0.72953 -0.19973,0.30743 -0.60005,0.67518 -1.21368,1.11056 -0.25277,0.17925 -0.66863,0.4272 -1.23764,0.75724 -0.56914,0.33 -1.23047,0.71706 -1.95768,1.12247 -0.72731,0.4054 -1.51188,0.82176 -2.37924,1.28974 -0.86731,0.46808 -1.69681,0.8937 -2.48767,1.27063 -0.79098,0.37688 -1.56049,0.71337 -2.29083,0.99207 -0.73044,0.27867 -1.47741,0.48498 -2.22467,0.6099 -0.74736,0.12489 -1.93878,0.17117 -3.5893,0.1632 -1.65061,-0.008 -3.47966,-0.13264 -5.48567,-0.40419 -2.00609,-0.27159 -4.1216,-0.69657 -6.34722,-1.25443 -2.22569,-0.55789 -4.38954,-1.29672 -6.49084,-2.23752 -3.47038,-1.55379 -6.07582,-3.33657 -7.81475,-5.32654 -1.73896,-1.98999 -2.50208,-4.1683 -2.31431,-6.54882 0.18773,-2.38052 1.36386,-4.95246 3.52609,-7.70215 2.16219,-2.74967 5.3931,-5.65252 9.68898,-8.7001 3.35723,-2.38169 7.15006,-4.71971 11.38304,-7.02268 4.23291,-2.30291 8.68285,-4.40347 13.37424,-6.31324 4.69127,-1.9097 9.52354,-3.55251 14.50662,-4.91395 4.98295,-1.36138 9.9323,-2.28595 14.82377,-2.79031 4.89132,-0.50429 9.65364,-0.52618 14.28893,-0.0383 4.6351,0.48797 8.92992,1.63328 12.9098,3.41509 1.67142,0.7484 3.12924,1.56621 4.37203,2.46332 z m 27.78157,28.71256 -0.0542,-0.01 -43.56556,14.93968 17.37729,7.79288 26.24251,-22.72298 z m 30.76391,107.83762 c 0.79659,0.623 1.48789,1.25089 2.0601,1.86734 0.76275,0.82196 1.30712,1.59929 1.62963,2.32842 0.32229,0.72919 0.4795,1.27882 0.45505,1.66464 -0.0247,0.3859 -0.16911,0.7502 -0.40477,1.0832 -0.23588,0.3331 -0.6362,0.7009 -1.21368,1.1106 -0.28891,0.2049 -0.73092,0.4963 -1.32006,0.8591 -0.58934,0.3628 -1.24836,0.7427 -1.99356,1.1609 -0.74543,0.4182 -1.53235,0.8417 -2.34333,1.2513 -0.81124,0.4096 -1.59619,0.7646 -2.36258,1.0689 -0.7666,0.3043 -1.45702,0.5216 -2.07262,0.6636 -0.6158,0.1421 -1.06788,0.1578 -1.35432,0.029 -0.44584,-0.1995 -0.79126,-0.6147 -1.00851,-1.2342 -0.21745,-0.6194 -0.52352,-1.3344 -0.97104,-2.1406 -0.44771,-0.8061 -1.1203,-1.6637 -1.97432,-2.5683 -0.85422,-0.9045 -2.09171,-1.72808 -3.7472,-2.46936 -1.71935,-0.76973 -3.45318,-1.22174 -5.18852,-1.37217 -1.73551,-0.15037 -3.42883,-0.0983 -5.0773,0.18703 -1.64863,0.28536 -3.2197,0.74873 -4.6868,1.36587 -1.46725,0.6172 -2.74298,1.32623 -3.86201,2.12003 -1.29967,0.922 -2.17001,1.8672 -2.5896,2.8281 -0.41972,0.9608 -0.56438,1.951 -0.45751,2.9805 0.10674,1.0294 0.37294,2.0999 0.80458,3.2121 0.43151,1.1123 0.84811,2.2455 1.2394,3.4232 0.39114,1.1777 0.67213,2.4193 0.86912,3.698 0.19686,1.2787 0.0885,2.6121 -0.31004,4.0001 -0.39866,1.388 -1.17472,2.8213 -2.35239,4.3199 -1.17781,1.4987 -2.91492,3.0652 -5.18912,4.6786 -3.39343,2.4073 -7.13367,4.3717 -11.24948,5.8916 -4.11593,1.5199 -8.3699,2.5461 -12.73054,3.0792 -4.36072,0.533 -8.7194,0.5249 -13.08282,-0.01 -4.36347,-0.5334 -8.44602,-1.6626 -12.26656,-3.3732 -2.06952,-0.9266 -3.79787,-1.9092 -5.1699,-2.9622 -1.37238,-1.0527 -2.46628,-2.0768 -3.27789,-3.0668 -0.81169,-0.99 -1.38401,-1.8919 -1.71172,-2.7278 -0.32763,-0.836 -0.42741,-1.5515 -0.33165,-2.1352 0.0958,-0.5837 0.67386,-1.2489 1.75685,-2.0172 0.28877,-0.2049 0.7689,-0.5066 1.41017,-0.8879 0.64128,-0.3812 1.35477,-0.7928 2.13406,-1.2166 0.77926,-0.4239 1.58468,-0.8407 2.44798,-1.2687 0.86312,-0.4281 1.69193,-0.7898 2.49241,-1.0997 0.80044,-0.31 1.5059,-0.5441 2.13754,-0.679 0.6316,-0.1349 1.13372,-0.128 1.45213,0.015 0.54122,0.2423 0.89714,0.7307 1.08584,1.4626 0.18863,0.732 0.50193,1.5847 0.94844,2.5573 0.44647,0.9728 1.1463,2.0062 2.09697,3.1002 0.95061,1.094 2.50286,2.1187 4.63604,3.0738 1.87843,0.841 3.77734,1.3886 5.73566,1.6388 1.95826,0.2502 3.89637,0.2486 5.79015,0.01 1.89369,-0.2382 3.72088,-0.6922 5.45985,-1.3548 1.73888,-0.6626 3.33252,-1.5199 4.81266,-2.5699 1.33563,-0.9476 2.22742,-1.8947 2.66518,-2.8684 0.43765,-0.9736 0.61326,-1.9735 0.52243,-2.9959 -0.0909,-1.0223 -0.3611,-2.0668 -0.79689,-3.1392 -0.43589,-1.0724 -0.84577,-2.2046 -1.22102,-3.3752 -0.37534,-1.1706 -0.63862,-2.3753 -0.82171,-3.627 -0.1832,-1.2516 -0.0861,-2.5711 0.32842,-3.952 0.41446,-1.3809 1.22145,-2.8239 2.4173,-4.3354 1.19575,-1.51141 2.97925,-3.10615 5.32578,-4.77082 3.24891,-2.30485 6.80534,-4.16235 10.69515,-5.59556 3.88967,-1.43313 7.84175,-2.39359 11.8469,-2.87706 4.00499,-0.48339 7.98852,-0.49576 11.92324,-0.008 3.93455,0.48761 7.58616,1.50683 10.99295,3.03206 1.5918,0.71277 2.98144,1.48207 4.14352,2.31557 0.29049,0.20838 0.55842,0.41214 0.8239,0.61983 z m -53.51436,-23.23771 c 0.1417,0.11021 0.26526,0.22143 0.36695,0.32431 0.40625,0.41174 0.5025,0.804 0.29654,1.17121 -0.20618,0.36727 -0.62274,0.80482 -1.24484,1.31988 l -54.02018,47.67241 c -1.14044,0.9932 -2.11167,1.7617 -2.88561,2.2924 -0.77401,0.5306 -1.55854,0.8215 -2.36725,0.898 -0.80898,0.076 -1.75024,-0.058 -2.82743,-0.4364 -1.07734,-0.3778 -2.48196,-0.9562 -4.20111,-1.726 -1.20991,-0.5417 -2.17782,-1.0063 -2.8878,-1.3868 -0.70995,-0.3806 -1.19259,-0.7043 -1.46202,-0.992 -0.26973,-0.2877 -0.32668,-0.5821 -0.19703,-0.8583 0.1296,-0.2762 0.40869,-0.5993 0.88228,-0.9721 l 12.42812,-10.7409 -23.213,-10.38019 -20.15387,6.88909 c -0.7283,0.2587 -1.41492,0.4371 -2.04441,0.5521 -0.6295,0.115 -1.30102,0.1154 -2.02273,0 -0.72179,-0.1143 -1.58228,-0.3387 -2.5618,-0.6938 -0.9796,-0.355 -2.15127,-0.8407 -3.52029,-1.4537 -1.46469,-0.6556 -2.54341,-1.1978 -3.24697,-1.6382 -0.70363,-0.44027 -0.97289,-0.87616 -0.82832,-1.29186 0.14456,-0.4157 0.69533,-0.84613 1.6604,-1.2913 0.96507,-0.44517 2.37979,-0.98788 4.24819,-1.61338 l 92.15742,-30.67503 c 0.93197,-0.29278 1.74027,-0.48171 2.43779,-0.60809 0.69733,-0.12632 1.43367,-0.1336 2.22133,-0.0108 0.78745,0.1229 1.71479,0.38295 2.77194,0.79353 1.05695,0.41064 2.38933,0.9838 4.01319,1.71076 1.87835,0.84106 3.35025,1.51643 4.39463,2.0466 0.78311,0.39768 1.38145,0.76646 1.80588,1.09744 z m -38.62725,-17.35227 c 0.40186,0.33659 0.56938,0.64664 0.48656,0.95412 -0.11068,0.41002 -0.66152,0.84049 -1.6604,1.2913 -0.99914,0.45085 -2.45908,1.00457 -4.36346,1.65566 l -91.38275,30.95505 c -0.90028,0.30707 -1.69679,0.51624 -2.39423,0.64263 -0.69749,0.12636 -1.45762,0.14271 -2.26105,0.0127 -0.80347,-0.13002 -1.74391,-0.40598 -2.80099,-0.81655 -1.05703,-0.41065 -2.38944,-0.98379 -4.01318,-1.71076 -1.87843,-0.84107 -3.34896,-1.52081 -4.40911,-2.05814 -1.06026,-0.53731 -1.78376,-1.01283 -2.15832,-1.41024 -0.3745,-0.39748 -0.45761,-0.77384 -0.26749,-1.14818 0.1901,-0.37436 0.59359,-0.82784 1.21583,-1.34293 l 55.76436,-48.29545 c 0.87909,-0.73418 1.61535,-1.29035 2.24291,-1.6987 0.62741,-0.40826 1.31208,-0.62923 2.03291,-0.66165 0.72066,-0.0323 1.56899,0.11046 2.53486,0.4384 0.96572,0.32803 2.2352,0.83961 3.79535,1.53805 1.55999,0.69853 2.74379,1.26591 3.54723,1.70909 0.80327,0.44327 1.32659,0.84606 1.58979,1.19357 0.26302,0.34758 0.258,0.67585 0.0245,0.98892 -0.23373,0.31316 -0.59137,0.69148 -1.10519,1.12971 l -48.66948,40.61447 0.0831,0.0327 78.16958,-27.6567 c 0.72815,-0.25873 1.41484,-0.43717 2.04445,-0.5522 0.62937,-0.11497 1.30226,-0.11971 2.00821,-0.0126 0.7057,0.10718 1.53064,0.32042 2.47851,0.66118 0.94763,0.34081 2.13101,0.8468 3.56386,1.48825 1.5281,0.68425 2.67661,1.25322 3.42807,1.71491 0.18782,0.11542 0.34148,0.23126 0.47535,0.3435 z m 16.59398,22.9519 -43.59075,14.95314 17.37729,7.79287 26.25703,-22.71146 -0.0435,-0.0345 z"
       style="color:#000000;display:inline;overflow:visible;visibility:visible;fill:#000000;fill-opacity:1;fill-rule:nonzero;stroke:#000000;stroke-width:1;marker:none;enable-background:accumulate"
       inkscape:connector-curvature="0" />
    <text
       xml:space="preserve"
       style="font-style:normal;font-variant:normal;font-weight:normal;font-stretch:normal;line-height:0%;font-family:Calibri;-inkscape-font-specification:Calibri;text-align:start;letter-spacing:0px;word-spacing:0px;writing-mode:lr-tb;text-anchor:start;fill:#000000;fill-opacity:1;stroke:none"
       x="-747.20679"
       y="960.4624"
       id="text3263"><tspan
         sodipodi:role="line"
         id="tspan3265"
         x="-747.20679"
         y="960.4624"
         style="font-size:54.3168px;line-height:1.25">Canvas</tspan></text>
    <text
       id="text3267"
       y="744.4624"
       x="-747.20679"
       style="font-style:normal;font-variant:normal;font-weight:normal;font-stretch:normal;line-height:0%;font-family:Calibri;-inkscape-font-specification:Calibri;text-align:start;letter-spacing:0px;word-spacing:0px;writing-mode:lr-tb;text-anchor:start;fill:#000000;fill-opacity:1;stroke:none"
       xml:space="preserve"><tspan
         y="744.4624"
         x="-747.20679"
         id="tspan3269"
         sodipodi:role="line"
         style="font-size:54.3168px;line-height:1.25">Mask</tspan></text>
    <text
       xml:space="preserve"
       style="font-style:normal;font-variant:normal;font-weight:normal;font-stretch:normal;line-height:0%;font-family:Calibri;-inkscape-font-specification:Calibri;text-align:start;letter-spacing:0px;word-spacing:0px;writing-mode:lr-tb;text-anchor:start;fill:#000000;fill-opacity:1;stroke:none"
       x="-747.20679"
       y="850.4624"
       id="text3271"><tspan
         sodipodi:role="line"
         id="tspan3273"
         x="-747.20679"
         y="850.4624"
         style="font-size:54.3168px;line-height:1.25">Brush</tspan></text>
    <text
       id="text3295"
       y="1160.4624"
       x="-747.20679"
       style="font-style:normal;font-variant:normal;font-weight:normal;font-stretch:normal;line-height:0%;font-family:Calibri;-inkscape-font-specification:Calibri;text-align:start;letter-spacing:0px;word-spacing:0px;writing-mode:lr-tb;text-anchor:start;fill:#000000;fill-opacity:1;stroke:none"
       xml:space="preserve"><tspan
         y="1160.4624"
         x="-747.20679"
         id="tspan3297"
         sodipodi:role="line"
         style="font-size:54.3168px;line-height:1.25">Background</tspan></text>
    <path
       style="fill:none;stroke:#000000;stroke-width:3;stroke-linecap:butt;stroke-linejoin:miter;stroke-miterlimit:4;stroke-dasharray:none;stroke-opacity:1;marker-end:url(#DotM)"
       d="m -608.72097,82.848823 h 91.56977 l 69.01216,54.719077"
       id="path3299"
       inkscape:connector-curvature="0"
       transform="translate(0,752.36218)" />
    <path
       transform="translate(0,752.36218)"
       inkscape:connector-curvature="0"
       id="path4513"
       d="m -608.72097,82.848823 h 91.56977 l 69.01216,54.719077"
       style="fill:none;stroke:#000000;stroke-width:3;stroke-linecap:butt;stroke-linejoin:miter;stroke-miterlimit:4;stroke-dasharray:none;stroke-opacity:1;marker-end:url(#DotM)" />
    <path
       style="fill:none;stroke:#000000;stroke-width:3;stroke-linecap:butt;stroke-linejoin:miter;stroke-miterlimit:4;stroke-dasharray:none;stroke-opacity:1;marker-end:url(#DotM)"
       d="m -580.72097,945.9707 h 53.96051 l 39.60926,-14.7597"
       id="path4515"
       inkscape:connector-curvature="0"
       sodipodi:nodetypes="ccc" />
    <path
       sodipodi:nodetypes="cc"
       inkscape:connector-curvature="0"
       id="path4517"
       d="m -480.72097,1145.9707 h 113.96051"
       style="fill:none;stroke:#000000;stroke-width:3;stroke-linecap:butt;stroke-linejoin:miter;stroke-miterlimit:4;stroke-dasharray:none;stroke-opacity:1;marker-end:url(#DotM)" />
    <path
       style="fill:none;stroke:#000000;stroke-width:3;stroke-linecap:butt;stroke-linejoin:miter;stroke-miterlimit:4;stroke-dasharray:none;stroke-opacity:1;marker-end:url(#DotM)"
       d="m -616.72097,731.9707 h 113.96051"
       id="path4519"
       inkscape:connector-curvature="0"
       sodipodi:nodetypes="cc" />
  </g>
  <g
     inkscape:groupmode="layer"
     id="layer4"
     inkscape:label="Brush"
     style="display:none">
    <circle
       style="color:#000000;display:inline;overflow:visible;visibility:visible;fill:url(#radialGradient4556);fill-opacity:1;fill-rule:nonzero;stroke:none;stroke-width:3;marker:none;filter:url(#filter92);enable-background:accumulate"
       id="path4546"
       transform="matrix(1.1078905,0,0,1.1078905,-68.59904,-63.28502)"
       inkscape:export-xdpi="90"
       inkscape:export-ydpi="90"
       inkscape:export-filename="C:\Users\Henkjan\Google Drive\03 HenkJan\09 Python\01 PIL\Animate\Examples\Example 10 - Canvas (robot)\Brush.png"
       cx="107.04942"
       cy="102.25291"
       r="45.130814" />
    <path
       id="path94"
       style="fill:#000000;stroke-width:4.00341;stop-color:#000000"
       d="M 49.574217,-6.7087789 A 56.709301,56.709301 0 0 0 -6.7089842,50.000201 56.709301,56.709301 0 0 0 49.999997,106.70919 56.709301,56.709301 0 0 0 106.70899,50.000201 56.709301,56.709301 0 0 0 49.999997,-6.7087789 a 56.709301,56.709301 0 0 0 -0.42578,0 z m 0.07813,15 a 41.709301,41.709301 0 0 1 0.34765,0 41.709301,41.709301 0 0 1 41.70899,41.7089799 41.709301,41.709301 0 0 1 -41.70899,41.70899 A 41.709301,41.709301 0 0 1 8.2910158,50.000201 41.709301,41.709301 0 0 1 49.652347,8.2912211 Z" />
  </g>
</svg>
